<svg width="248" height="248" viewBox="0 0 248 248" fill="none" xmlns="http://www.w3.org/2000/svg">
<rect width="247.8" height="247.398" fill="black"/>
<path d="M111.5 109L136.5 124L111.5 139V109Z" fill="white"/>
<path d="M104.923 240.348L105.001 240.323C105.387 240.765 105.87 241.138 106.45 241.44C107.024 241.741 107.671 241.931 108.392 242.008C109.085 242.083 109.733 242.042 110.334 241.884C110.935 241.732 111.467 241.472 111.93 241.105C112.387 240.737 112.763 240.266 113.059 239.691C113.355 239.116 113.544 238.446 113.627 237.682C113.718 236.84 113.693 236.041 113.552 235.286C113.41 234.536 113.151 233.87 112.774 233.29C112.397 232.709 111.901 232.23 111.285 231.851C110.663 231.478 109.917 231.244 109.048 231.15C108.734 231.116 108.417 231.116 108.096 231.148C107.776 231.18 107.465 231.244 107.166 231.339C106.86 231.44 106.571 231.567 106.298 231.721C106.019 231.881 105.762 232.067 105.528 232.281L105.443 232.214L106.285 230.601C106.715 230.486 107.185 230.415 107.694 230.386C108.199 230.352 108.705 230.362 109.211 230.417C110.229 230.526 111.145 230.773 111.961 231.156C112.771 231.544 113.452 232.041 114.004 232.646C114.551 233.251 114.955 233.948 115.214 234.739C115.468 235.534 115.545 236.394 115.445 237.319C115.388 237.841 115.267 238.349 115.08 238.84C114.888 239.332 114.638 239.792 114.33 240.22C114.022 240.649 113.657 241.033 113.237 241.371C112.815 241.716 112.348 242.002 111.833 242.23C111.313 242.458 110.753 242.617 110.153 242.708C109.547 242.804 108.903 242.815 108.221 242.741C107.159 242.627 106.192 242.358 105.319 241.935L104.923 240.348Z" fill="white"/>
<path d="M100.005 229.706C99.3673 229.565 98.775 229.463 98.2282 229.398C97.6813 229.334 97.2001 229.293 96.7848 229.275C96.3034 229.248 95.8595 229.243 95.4531 229.261L95.9786 228C96.0422 228.019 96.1383 228.046 96.2667 228.08C96.3952 228.114 96.5399 228.152 96.7008 228.193C96.8563 228.233 97.0226 228.276 97.1998 228.321C97.3727 228.359 97.5369 228.398 97.6924 228.438C97.8491 228.473 97.9889 228.507 98.112 228.539C98.2309 228.566 98.3174 228.585 98.3714 228.597L101.873 229.371L101.866 229.404C101.808 229.51 101.747 229.644 101.683 229.805C101.614 229.966 101.541 230.168 101.464 230.411C101.388 230.655 101.306 230.946 101.22 231.284C101.133 231.628 101.038 232.029 100.937 232.488L99.77 237.765C99.6685 238.224 99.5855 238.625 99.521 238.968C99.4553 239.316 99.4058 239.617 99.3725 239.87C99.3379 240.129 99.3183 240.345 99.3137 240.52C99.3037 240.694 99.3023 240.841 99.3096 240.961L99.3025 240.994L97.3573 240.563L97.3645 240.531C97.422 240.425 97.4855 240.291 97.5549 240.131C97.619 239.97 97.6899 239.764 97.7677 239.515C97.8388 239.27 97.9208 238.976 98.0135 238.634C98.0995 238.296 98.1934 237.898 98.2949 237.438L100.005 229.706Z" fill="white"/>
<path d="M84.5179 224.313L84.5072 224.345C84.4879 224.367 84.4666 224.404 84.4436 224.455C84.4205 224.505 84.4019 224.552 84.3877 224.594C84.3324 224.756 84.2955 224.942 84.2767 225.152C84.251 225.365 84.2511 225.64 84.2771 225.976L84.5015 228.437C84.7914 228.547 85.1799 228.685 85.6672 228.851C86.1545 229.017 86.6811 229.195 87.2469 229.388C87.6608 229.528 88.0617 229.665 88.4494 229.796C88.8319 229.926 89.1795 230.039 89.4922 230.133L91.1012 228.366C91.2456 228.199 91.4016 228.015 91.569 227.815C91.7365 227.614 91.8602 227.396 91.9404 227.161C91.9635 227.092 91.9779 227.033 91.9834 226.982C91.9872 226.937 91.9865 226.904 91.9814 226.885L91.9921 226.854L93.5953 227.399L93.5847 227.43C93.4565 227.498 93.279 227.633 93.052 227.836C92.8233 228.045 92.5601 228.312 92.2624 228.638L84.364 237.096L83.7352 236.882L82.7319 225.828C82.7089 225.569 82.6815 225.314 82.6498 225.064C82.611 224.817 82.5729 224.593 82.5356 224.394C82.4983 224.194 82.4625 224.024 82.4283 223.884C82.3942 223.744 82.3693 223.653 82.3538 223.613L82.3645 223.581L84.5179 224.313ZM88.1175 230.438C87.8136 230.334 87.5019 230.228 87.1822 230.12C86.8609 230.016 86.5482 229.913 86.2443 229.81C85.9334 229.71 85.6365 229.612 85.3536 229.516C85.0688 229.425 84.8103 229.343 84.578 229.27L85.0902 235.011L88.9663 230.726L88.1175 230.438Z" fill="white"/>
<path d="M70.5744 228.933L70.7391 229.012C70.724 229.146 70.7267 229.307 70.7472 229.495C70.7627 229.68 70.8129 229.87 70.8979 230.064C70.9755 230.261 71.0962 230.45 71.2602 230.633C71.4192 230.814 71.6359 230.97 71.9104 231.101C72.1549 231.218 72.39 231.285 72.6155 231.301C72.841 231.317 73.0509 231.289 73.2452 231.216C73.4345 231.141 73.6059 231.027 73.7592 230.873C73.9126 230.72 74.043 230.531 74.1506 230.306C74.3228 229.947 74.388 229.555 74.3461 229.13C74.2969 228.707 74.1966 228.263 74.0452 227.798C73.8938 227.333 73.7175 226.856 73.5162 226.366C73.3149 225.877 73.1445 225.388 73.005 224.897C72.8656 224.407 72.7869 223.925 72.769 223.45C72.7437 222.977 72.8351 222.524 73.0431 222.09C73.1985 221.765 73.4125 221.466 73.6851 221.192C73.9503 220.92 74.2624 220.71 74.6213 220.563C74.9802 220.416 75.3837 220.349 75.8319 220.361C76.2778 220.378 76.7552 220.509 77.2642 220.753C77.5487 220.889 77.8075 221.047 78.0407 221.226C78.2714 221.398 78.4785 221.574 78.6623 221.754C78.8386 221.936 78.9926 222.115 79.1242 222.288C79.2509 222.459 79.3511 222.608 79.4251 222.736L78.4603 224.308L78.2731 224.218C78.3306 223.957 78.3484 223.69 78.3264 223.415C78.3021 223.146 78.2395 222.886 78.1388 222.635C78.0306 222.387 77.8832 222.157 77.6964 221.945C77.5073 221.737 77.273 221.567 76.9935 221.433C76.739 221.311 76.494 221.24 76.2585 221.219C76.0156 221.201 75.7896 221.224 75.5803 221.29C75.3686 221.36 75.1799 221.472 75.0142 221.626C74.8435 221.777 74.7043 221.965 74.5967 222.19C74.4461 222.504 74.3648 222.821 74.3529 223.141C74.3385 223.465 74.3688 223.793 74.4437 224.123C74.5136 224.451 74.6145 224.785 74.7464 225.124C74.8734 225.461 75.0078 225.802 75.1498 226.146C75.2893 226.495 75.4215 226.847 75.5463 227.201C75.6661 227.553 75.7562 227.909 75.8167 228.269C75.8699 228.632 75.8797 228.996 75.8463 229.36C75.8104 229.73 75.7028 230.102 75.5235 230.476C75.3346 230.87 75.09 231.189 74.7896 231.431C74.4819 231.677 74.1495 231.852 73.7923 231.957C73.4302 232.059 73.0608 232.094 72.684 232.061C72.3072 232.028 71.9491 231.93 71.6098 231.767C71.3602 231.648 71.1402 231.518 70.9497 231.377C70.7593 231.237 70.5948 231.1 70.4564 230.966C70.3131 230.83 70.1921 230.704 70.0937 230.59C69.9952 230.475 69.9144 230.381 69.8513 230.308L70.5744 228.933Z" fill="white"/>
<path d="M59.3595 222.446L59.5145 222.543C59.4848 222.674 59.4699 222.834 59.4696 223.023C59.4647 223.209 59.4938 223.403 59.5569 223.605C59.6124 223.809 59.7116 224.011 59.8545 224.211C59.9927 224.408 60.191 224.587 60.4494 224.748C60.6796 224.891 60.9059 224.983 61.1283 225.024C61.3507 225.064 61.5625 225.059 61.7636 225.008C61.96 224.955 62.1428 224.86 62.3121 224.724C62.4814 224.588 62.6318 224.415 62.7634 224.203C62.974 223.865 63.0818 223.482 63.0869 223.055C63.0844 222.63 63.0334 222.178 62.934 221.699C62.8346 221.22 62.7116 220.726 62.5652 220.218C62.4188 219.709 62.3033 219.204 62.2185 218.701C62.1337 218.199 62.1084 217.711 62.1428 217.237C62.1695 216.764 62.31 216.324 62.5645 215.915C62.7546 215.61 63.0001 215.336 63.3012 215.093C63.5946 214.852 63.9278 214.678 64.3007 214.571C64.6736 214.464 65.0821 214.441 65.5262 214.503C65.9675 214.569 66.4277 214.751 66.9069 215.049C67.1747 215.216 67.4146 215.401 67.6268 215.605C67.8371 215.801 68.0237 215.999 68.1866 216.198C68.3418 216.399 68.4753 216.593 68.5871 216.78C68.6942 216.964 68.7775 217.123 68.837 217.258L67.7054 218.714L67.5293 218.605C67.615 218.352 67.6621 218.088 67.6704 217.813C67.6757 217.542 67.6421 217.277 67.5695 217.016C67.4892 216.758 67.368 216.513 67.2056 216.282C67.0404 216.055 66.8262 215.86 66.5631 215.696C66.3235 215.547 66.0878 215.449 65.8561 215.402C65.6166 215.358 65.3893 215.356 65.1741 215.398C64.956 215.445 64.7562 215.536 64.5746 215.67C64.3883 215.802 64.2293 215.974 64.0977 216.185C63.9135 216.481 63.7979 216.787 63.751 217.103C63.7011 217.424 63.6952 217.753 63.7334 218.09C63.7668 218.424 63.8305 218.766 63.9244 219.118C64.0136 219.467 64.1099 219.82 64.2132 220.178C64.3136 220.54 64.4063 220.904 64.4915 221.27C64.5719 221.633 64.6224 221.997 64.643 222.362C64.656 222.728 64.6259 223.091 64.5526 223.449C64.4764 223.813 64.3287 224.17 64.1093 224.523C63.8783 224.894 63.6002 225.184 63.275 225.392C62.9422 225.602 62.5926 225.74 62.2261 225.805C61.8549 225.867 61.4839 225.861 61.113 225.787C60.7421 225.712 60.397 225.575 60.0775 225.377C59.8426 225.23 59.6382 225.077 59.4643 224.917C59.2904 224.756 59.142 224.602 59.0191 224.454C58.8915 224.303 58.7851 224.165 58.6998 224.04C58.6145 223.915 58.5446 223.813 58.4899 223.733L59.3595 222.446Z" fill="white"/>
<path d="M58.9375 209.934C58.8402 210.005 58.7281 210.101 58.6014 210.219C58.4746 210.338 58.3247 210.492 58.1516 210.68C57.9785 210.868 57.781 211.096 57.5591 211.365C57.3339 211.639 57.0775 211.962 56.79 212.334L53.4871 216.611C53.1996 216.983 52.9537 217.311 52.7493 217.593C52.5416 217.88 52.3687 218.131 52.2306 218.346C52.0892 218.566 51.977 218.752 51.894 218.905C51.8111 219.057 51.7472 219.19 51.7025 219.302L51.6822 219.328L50.112 218.116L50.1323 218.089C50.2296 218.018 50.3438 217.924 50.475 217.809C50.6017 217.69 50.7533 217.534 50.9298 217.342C51.0986 217.151 51.2977 216.92 51.5274 216.65C51.7492 216.38 52.0039 216.06 52.2914 215.687L55.5943 211.411C55.8819 211.038 56.1295 210.709 56.3372 210.422C56.5371 210.135 56.7083 209.887 56.8508 209.675C56.9889 209.46 57.0994 209.276 57.1823 209.123C57.2609 208.967 57.3226 208.833 57.3673 208.721L57.3876 208.695L58.9578 209.907L58.9375 209.934Z" fill="white"/>
<path d="M37.4682 204.268L37.545 204.296C37.5789 204.883 37.7323 205.473 38.005 206.067C38.2738 206.657 38.6691 207.204 39.1907 207.707C39.6925 208.191 40.2292 208.556 40.8011 208.8C41.369 209.048 41.9485 209.169 42.5393 209.162C43.1262 209.152 43.7126 209.01 44.2988 208.737C44.8849 208.465 45.445 208.052 45.9791 207.498C46.5671 206.889 47.037 206.243 47.3888 205.559C47.7367 204.88 47.9398 204.195 47.998 203.506C48.0561 202.816 47.9579 202.133 47.7032 201.456C47.4407 200.78 46.9948 200.138 46.3657 199.531C46.1387 199.312 45.8887 199.117 45.6156 198.946C45.3425 198.774 45.0582 198.635 44.7628 198.526C44.4595 198.418 44.1529 198.342 43.8429 198.296C43.5251 198.251 43.2079 198.241 42.8913 198.266L42.866 198.161L44.5197 197.404C44.9298 197.576 45.3448 197.808 45.7648 198.098C46.1847 198.38 46.5778 198.698 46.9442 199.051C47.6808 199.762 48.254 200.519 48.6635 201.322C49.0653 202.125 49.2989 202.935 49.3643 203.751C49.4257 204.564 49.3166 205.363 49.0371 206.146C48.7497 206.93 48.2832 207.657 47.6376 208.326C47.2725 208.704 46.8654 209.03 46.4163 209.304C45.9633 209.575 45.4837 209.785 44.9776 209.935C44.4715 210.085 43.9484 210.164 43.4085 210.174C42.8648 210.188 42.3197 210.127 41.7733 209.992C41.2229 209.853 40.6829 209.635 40.1532 209.34C39.6157 209.044 39.1 208.658 38.6062 208.181C37.8377 207.44 37.2383 206.634 36.808 205.765L37.4682 204.268Z" fill="white"/>
<path d="M21.456 182.539L21.5245 182.584C21.4243 183.163 21.4396 183.772 21.5703 184.413C21.6981 185.049 21.9588 185.671 22.3524 186.28C22.7311 186.865 23.1711 187.342 23.6725 187.709C24.1693 188.08 24.7061 188.329 25.283 188.457C25.8569 188.58 26.4602 188.576 27.0929 188.443C27.7256 188.311 28.3649 188.036 29.0108 187.618C29.7218 187.158 30.3262 186.636 30.824 186.05C31.3172 185.468 31.6705 184.847 31.8838 184.188C32.0972 183.53 32.1566 182.842 32.0623 182.126C31.9602 181.407 31.6718 180.681 31.197 179.947C31.0257 179.682 30.8266 179.435 30.5995 179.206C30.3725 178.978 30.1274 178.777 29.8642 178.604C29.5934 178.43 29.3123 178.286 29.0207 178.171C28.7214 178.055 28.4148 177.973 28.1008 177.926L28.1 177.818L29.8826 177.456C30.2427 177.717 30.5944 178.037 30.9375 178.414C31.2823 178.785 31.593 179.183 31.8694 179.611C32.4254 180.471 32.8116 181.338 33.0281 182.213C33.2369 183.086 33.2804 183.928 33.1586 184.738C33.0338 185.544 32.7462 186.296 32.2959 186.996C31.838 187.694 31.2186 188.296 30.438 188.801C29.9965 189.086 29.526 189.311 29.0264 189.476C28.5237 189.637 28.0089 189.732 27.482 189.763C26.9551 189.794 26.4276 189.753 25.8997 189.64C25.367 189.53 24.85 189.347 24.3486 189.091C23.8441 188.831 23.3676 188.496 22.9189 188.088C22.4626 187.678 22.0482 187.185 21.6755 186.609C21.0955 185.712 20.6947 184.791 20.4731 183.847L21.456 182.539Z" fill="white"/>
<path d="M14.7395 173.519C14.3488 172.681 14.1264 171.845 14.0723 171.009C14.0108 170.171 14.1078 169.377 14.3633 168.629C14.6137 167.883 15.0171 167.203 15.5735 166.59C16.1298 165.976 16.8267 165.474 17.6642 165.083C18.1406 164.861 18.6352 164.697 19.1481 164.592C19.6609 164.487 20.1733 164.447 20.6851 164.47C21.1946 164.489 21.6974 164.572 22.1935 164.719C22.6846 164.869 23.1516 165.084 23.5946 165.366C24.0301 165.645 24.4305 165.993 24.7955 166.409C25.1656 166.822 25.4804 167.307 25.7402 167.864C26.1309 168.702 26.3595 169.538 26.426 170.375C26.4851 171.208 26.3894 171.998 26.139 172.743C25.8885 173.489 25.4876 174.168 24.9363 174.779C24.38 175.393 23.6806 175.897 22.8381 176.29C22.3617 176.512 21.867 176.676 21.3542 176.78C20.8413 176.885 20.3277 176.93 19.8132 176.913C19.2963 176.892 18.7935 176.809 18.3048 176.664C17.8087 176.517 17.3403 176.305 16.8997 176.028C16.4568 175.747 16.0528 175.398 15.6877 174.982C15.3153 174.563 14.9993 174.076 14.7395 173.519ZM25.0632 168.18C24.8034 167.623 24.4656 167.161 24.0498 166.793C23.6339 166.426 23.1582 166.165 22.6227 166.012C22.0848 165.854 21.4992 165.809 20.866 165.879C20.2278 165.951 19.5602 166.149 18.8631 166.475C18.0908 166.835 17.4183 167.259 16.8456 167.746C16.2656 168.23 15.8167 168.76 15.4991 169.336C15.1764 169.914 15.0025 170.529 14.9774 171.182C14.9449 171.832 15.0913 172.506 15.4166 173.203C15.6763 173.76 16.0141 174.222 16.4299 174.59C16.8408 174.96 17.3126 175.225 17.8455 175.386C18.3761 175.541 18.9579 175.584 19.5911 175.515C20.2243 175.445 20.8894 175.248 21.5865 174.923C22.3538 174.565 23.0299 174.142 23.615 173.655C24.1951 173.171 24.6465 172.64 24.9691 172.062C25.2918 171.484 25.4707 170.866 25.5058 170.208C25.5359 169.553 25.3884 168.877 25.0632 168.18Z" fill="white"/>
<path d="M20.622 157.286C20.4182 156.666 20.2045 156.104 19.9809 155.601C19.7574 155.098 19.5475 154.663 19.3514 154.296C19.1292 153.868 18.9069 153.484 18.6844 153.144L20.0371 152.953C20.0526 153.018 20.0784 153.114 20.1146 153.242C20.1508 153.37 20.1921 153.513 20.2387 153.673C20.2835 153.827 20.3318 153.992 20.3836 154.167C20.4388 154.335 20.4889 154.496 20.5337 154.651C20.5838 154.803 20.6261 154.941 20.6605 155.063C20.6985 155.179 20.7262 155.263 20.7434 155.316L21.8626 158.722L21.831 158.733C21.7103 158.738 21.5641 158.754 21.3925 158.781C21.2191 158.803 21.0081 158.843 20.7593 158.901C20.5106 158.96 20.2189 159.038 19.8842 159.137C19.5442 159.237 19.1508 159.36 18.704 159.507L13.5701 161.193C13.1232 161.34 12.7359 161.473 12.4081 161.592C12.0751 161.713 11.7911 161.824 11.5562 161.925C11.316 162.027 11.1196 162.121 10.9669 162.206C10.8126 162.285 10.6854 162.359 10.5854 162.427L10.5538 162.437L9.93207 160.545L9.96361 160.534C10.0844 160.53 10.2314 160.516 10.4048 160.494C10.5764 160.467 10.7892 160.423 11.0432 160.363C11.2902 160.3 11.5846 160.22 11.9262 160.126C12.2609 160.027 12.6517 159.905 13.0986 159.758L20.622 157.286Z" fill="white"/>
<path d="M17.9935 147.697C17.8473 147.06 17.686 146.481 17.5094 145.96C17.3328 145.438 17.1637 144.986 17.0019 144.603C16.8199 144.157 16.6336 143.754 16.4432 143.394L17.8077 143.328C17.8172 143.394 17.8341 143.492 17.8584 143.623C17.8828 143.753 17.9108 143.9 17.9426 144.063C17.9731 144.221 18.0061 144.389 18.0416 144.569C18.0812 144.741 18.1163 144.906 18.1468 145.064C18.1827 145.22 18.2123 145.361 18.2353 145.487C18.2626 145.605 18.2824 145.692 18.2948 145.745L19.0974 149.24L19.0651 149.248C18.9444 149.241 18.7973 149.244 18.6239 149.255C18.4493 149.261 18.2355 149.282 17.9824 149.318C17.7294 149.353 17.4317 149.404 17.0894 149.472C16.7418 149.54 16.3387 149.627 15.8803 149.732L10.6136 150.942C10.1551 151.047 9.75725 151.144 9.41994 151.233C9.07724 151.323 8.78432 151.407 8.54117 151.486C8.29263 151.566 8.08848 151.641 7.92872 151.712C7.76771 151.777 7.63429 151.839 7.52846 151.897L7.4961 151.905L7.0502 149.963L7.08256 149.956C7.20325 149.962 7.35092 149.962 7.52555 149.956C7.69894 149.945 7.91485 149.921 8.1733 149.884C8.42512 149.843 8.72547 149.791 9.07437 149.728C9.41663 149.661 9.81699 149.575 10.2754 149.469L17.9935 147.697Z" fill="white"/>
<path d="M5.32692 140.901C5.25018 140.214 5.17131 139.532 5.0903 138.856C5.00868 138.175 4.9335 137.551 4.86477 136.985C4.79054 136.42 4.72277 135.938 4.66146 135.538C4.60014 135.138 4.54776 134.869 4.5043 134.729L5.64661 135.01C5.61737 135.197 5.59701 135.414 5.58552 135.66C5.57585 135.873 5.57415 136.132 5.58041 136.438C5.58056 136.738 5.60243 137.084 5.64602 137.474C5.66075 137.606 5.68406 137.765 5.71593 137.951C5.74169 138.132 5.76958 138.307 5.79961 138.476C5.83271 138.673 5.86612 138.872 5.89983 139.075L10.4041 138.572C10.3354 138.006 10.2618 137.496 10.1833 137.043C10.1049 136.59 10.0341 136.205 9.97098 135.889C9.89623 135.519 9.8209 135.193 9.74498 134.912L10.9697 135.034C10.9626 135.419 10.9591 135.812 10.9593 136.213C10.9589 136.558 10.9673 136.933 10.9846 137.338C10.9964 137.743 11.0229 138.13 11.064 138.498L16.2365 137.921C16.1641 137.272 16.07 136.678 15.9542 136.14C15.8384 135.602 15.7221 135.133 15.6051 134.734C15.4754 134.27 15.3364 133.848 15.1883 133.469L16.5515 133.559C16.5533 133.626 16.5589 133.725 16.5681 133.858C16.5774 133.991 16.5884 134.14 16.6014 134.305C16.6137 134.465 16.6272 134.637 16.6419 134.819C16.6616 134.995 16.6776 135.163 16.6899 135.323C16.7077 135.482 16.7209 135.626 16.7295 135.753C16.743 135.874 16.7528 135.962 16.759 136.017L17.1568 139.581L17.1238 139.584C17.0046 139.564 16.8582 139.55 16.6847 139.541C16.5105 139.527 16.2957 139.524 16.0402 139.53C15.7848 139.536 15.4832 139.553 15.1355 139.581C14.7823 139.609 14.372 139.649 13.9045 139.701L8.53404 140.301C8.06656 140.353 7.6602 140.404 7.31495 140.454C6.96419 140.504 6.66355 140.554 6.41302 140.604C6.15699 140.655 5.94557 140.707 5.77877 140.759C5.61134 140.805 5.47173 140.851 5.35992 140.897L5.32692 140.901Z" fill="white"/>
<path d="M6.15661 114.956L6.18818 115.031C5.78045 115.454 5.45102 115.967 5.19989 116.571C4.94887 117.169 4.81549 117.83 4.79973 118.555C4.78457 119.252 4.88132 119.893 5.08999 120.479C5.29312 121.065 5.59759 121.572 6.00339 122.002C6.4093 122.426 6.91126 122.76 7.50925 123.006C8.10725 123.251 8.79076 123.382 9.55978 123.399C10.4063 123.418 11.1998 123.324 11.9405 123.119C12.6756 122.913 13.3162 122.598 13.8624 122.173C14.4085 121.747 14.8436 121.211 15.1676 120.565C15.4862 119.914 15.6551 119.151 15.6741 118.277C15.6809 117.961 15.6546 117.645 15.5951 117.328C15.5355 117.012 15.4453 116.708 15.3243 116.417C15.1979 116.121 15.0461 115.844 14.8691 115.586C14.6867 115.321 14.4788 115.082 14.2454 114.866L14.3055 114.776L15.984 115.477C16.1355 115.895 16.2472 116.357 16.3192 116.863C16.3969 117.362 16.4302 117.867 16.4192 118.376C16.3969 119.399 16.2299 120.334 15.9181 121.18C15.601 122.019 15.1646 122.741 14.6091 123.343C14.0536 123.94 13.3932 124.401 12.6278 124.728C11.857 125.049 11.0068 125.199 10.0774 125.179C9.55177 125.168 9.03592 125.09 8.52981 124.946C8.02383 124.797 7.54406 124.587 7.09051 124.317C6.63697 124.047 6.22347 123.717 5.85003 123.327C5.47105 122.937 5.14578 122.495 4.87421 122.002C4.60275 121.504 4.39595 120.959 4.25379 120.37C4.10622 119.774 4.0399 119.133 4.05482 118.447C4.07804 117.38 4.26278 116.393 4.60906 115.487L6.15661 114.956Z" fill="white"/>
<path d="M6.18944 106.316C6.09774 106.963 6.04511 107.551 6.03155 108.08C6.01251 108.608 6.00905 109.066 6.02118 109.453C6.04119 109.903 6.07603 110.308 6.12569 110.667L4.82809 110.24C4.8429 110.175 4.86237 110.077 4.8865 109.946C4.91063 109.816 4.9367 109.671 4.96472 109.513C4.99351 109.349 5.02308 109.18 5.05343 109.006C5.07908 108.825 5.10591 108.655 5.13392 108.497C5.15646 108.338 5.17902 108.199 5.20159 108.079C5.21947 107.953 5.23229 107.863 5.24006 107.808L5.90569 103.115C5.91346 103.061 5.9259 102.973 5.943 102.852C5.95539 102.726 5.97286 102.583 5.9954 102.424C6.01245 102.264 6.03342 102.097 6.05829 101.921C6.07845 101.74 6.09707 101.569 6.11412 101.41C6.13196 101.244 6.14746 101.096 6.16064 100.963C6.17381 100.831 6.18232 100.732 6.18617 100.665L7.55137 100.616C7.40301 100.952 7.25665 101.334 7.1123 101.761C6.99292 102.129 6.86893 102.57 6.74031 103.083C6.60621 103.595 6.49331 104.174 6.40161 104.821L14.2503 105.934C14.716 106 15.125 106.052 15.4772 106.091C15.8247 106.124 16.1256 106.15 16.38 106.169C16.6351 106.183 16.8496 106.188 17.0233 106.185C17.1978 106.176 17.3449 106.163 17.4647 106.147L17.4975 106.151L17.2189 108.116L17.1861 108.111C17.0757 108.062 16.9375 108.011 16.7715 107.96C16.6056 107.908 16.3981 107.854 16.1492 107.796C15.9003 107.738 15.604 107.68 15.2604 107.62C14.9113 107.559 14.5038 107.496 14.0381 107.43L6.18944 106.316Z" fill="white"/>
<path d="M18.8739 99.2221C18.7691 99.162 18.6366 99.0981 18.4767 99.0301C18.3168 98.9622 18.1159 98.887 17.874 98.8046C17.6322 98.7222 17.3433 98.6338 17.0075 98.5396C16.6662 98.4441 16.2673 98.34 15.8106 98.2275L10.5639 96.9339C10.1072 96.8213 9.70825 96.7286 9.36711 96.6559C9.02059 96.5819 8.7211 96.5251 8.46865 96.4857C8.21082 96.4449 7.99531 96.4175 7.82213 96.4032C7.64894 96.389 7.50196 96.3842 7.38118 96.3886L7.34894 96.3806L7.82384 94.4544L7.85608 94.4624C7.96096 94.5224 8.09271 94.5891 8.25133 94.6624C8.41127 94.7303 8.61485 94.8062 8.86208 94.8899C9.10526 94.967 9.3968 95.056 9.7367 95.1569C10.0725 95.2511 10.4688 95.3545 10.9255 95.4671L16.1722 96.7606C16.6289 96.8732 17.0305 96.9665 17.377 97.0406C17.7195 97.1079 18.0163 97.164 18.2675 97.2088C18.5199 97.2483 18.7327 97.2751 18.9059 97.2893C19.0804 97.2981 19.2281 97.3003 19.3488 97.2959L19.3811 97.3038L18.9062 99.23L18.8739 99.2221Z" fill="white"/>
<path d="M12.0835 80.4523C12.4098 79.5876 12.8531 78.8441 13.4134 78.2215C13.9704 77.5918 14.6059 77.1071 15.3197 76.7673C16.0284 76.4255 16.7966 76.2393 17.6244 76.2087C18.4522 76.178 19.2984 76.3259 20.1631 76.6522C20.6549 76.8378 21.1175 77.0775 21.5508 77.3711C21.9842 77.6648 22.3711 78.0031 22.7116 78.3859C23.0541 78.7636 23.346 79.1813 23.5872 79.6391C23.8233 80.095 23.9952 80.5798 24.103 81.0936C24.2075 81.6003 24.2384 82.1296 24.1958 82.6813C24.1583 83.235 24.0312 83.7992 23.8143 84.3739C23.488 85.2385 23.0489 85.9866 22.497 86.6183C21.9419 87.2428 21.31 87.7259 20.6014 88.0677C19.8927 88.4095 19.1271 88.5966 18.3044 88.6292C17.4766 88.6599 16.6278 88.511 15.758 88.1828C15.2662 87.9971 14.8036 87.7575 14.3702 87.4638C13.9369 87.1701 13.5464 86.8335 13.1988 86.4538C12.8531 86.069 12.5612 85.6513 12.3232 85.2007C12.0819 84.7429 11.9064 84.2597 11.7967 83.751C11.689 83.2371 11.6565 82.7043 11.6991 82.1526C11.7385 81.5937 11.8666 81.027 12.0835 80.4523ZM23.1153 84.1101C23.3322 83.5354 23.427 82.9708 23.3997 82.4163C23.3724 81.8619 23.2264 81.3395 22.9619 80.8493C22.6994 80.3539 22.3221 79.9039 21.83 79.4994C21.3328 79.0929 20.7244 78.7538 20.0047 78.4822C19.2074 78.1813 18.4344 77.996 17.6859 77.9265C16.9341 77.8497 16.2412 77.8988 15.6074 78.0736C14.9685 78.2465 14.4066 78.552 13.9218 78.9901C13.4339 79.4211 13.0541 79.9964 12.7825 80.7161C12.5656 81.2907 12.4708 81.8553 12.4981 82.4098C12.5202 82.9623 12.66 83.4853 12.9174 83.9788C13.1767 84.467 13.5524 84.9134 14.0445 85.318C14.5365 85.7225 15.1423 86.0606 15.862 86.3322C16.6541 86.6312 17.4287 86.82 18.1857 86.8987C18.9375 86.9754 19.6329 86.9273 20.2719 86.7544C20.9109 86.5816 21.4779 86.278 21.973 85.8438C22.4629 85.4077 22.8437 84.8298 23.1153 84.1101Z" fill="white"/>
<path d="M17.3753 69.0665L29.4675 65.9607L24.3474 63.1439C23.9353 62.9172 23.5739 62.7246 23.2631 62.5663C22.9474 62.4053 22.6727 62.2731 22.439 62.1698C22.2005 62.0638 21.9981 61.984 21.8318 61.9304C21.6681 61.872 21.5274 61.8293 21.4096 61.8024L21.3805 61.7864L22.0927 60.4918L22.1218 60.5078C22.2076 60.5929 22.319 60.6889 22.4559 60.7959C22.5929 60.9028 22.77 61.0286 22.9872 61.1734C23.1996 61.3155 23.4582 61.4768 23.7632 61.6572C24.0633 61.8349 24.4195 62.0372 24.8316 62.2639L32.5553 66.5131L32.4153 66.7676L20.3304 69.8774L25.305 72.6142C25.7171 72.8409 26.081 73.0348 26.3966 73.1958C26.7074 73.3542 26.9797 73.485 27.2134 73.5883C27.4471 73.6916 27.6457 73.7725 27.8094 73.8309C27.973 73.8894 28.1138 73.9321 28.2316 73.959L28.2607 73.975L27.5485 75.2695L27.5194 75.2535C27.4336 75.1684 27.3222 75.0724 27.1852 74.9655C27.0509 74.8537 26.8776 74.7268 26.6652 74.5847C26.4528 74.4426 26.1966 74.2826 25.8965 74.1049C25.5915 73.9245 25.233 73.7209 24.8208 73.4942L20.0862 70.8894C19.6741 70.6627 19.3126 70.4702 19.0018 70.3118C18.6862 70.1508 18.4115 70.0186 18.1778 69.9153C17.9393 69.8094 17.7368 69.7296 17.5705 69.676C17.4069 69.6175 17.2662 69.5748 17.1483 69.5479L17.1192 69.5319L17.3753 69.0665Z" fill="white"/>
<path d="M41.7299 53.6641C41.7084 53.5319 41.6921 53.3407 41.6811 53.0905C41.666 52.8366 41.6471 52.5417 41.6244 52.2059C41.5977 51.8663 41.5617 51.4958 41.5166 51.0943C41.4714 50.6929 41.4079 50.2746 41.326 49.8396C41.2442 49.4045 41.1385 48.9626 41.009 48.514C40.8792 48.0575 40.7166 47.6123 40.5211 47.1784C40.3257 46.7444 40.0919 46.3278 39.8197 45.9285C39.5512 45.5252 39.2353 45.1572 38.872 44.8247C38.4843 44.4697 38.1066 44.2102 37.739 44.0463C37.3711 43.8745 37.0224 43.7842 36.693 43.7752C36.3595 43.7625 36.0488 43.8232 35.761 43.9574C35.4769 44.0874 35.2209 44.2769 34.9929 44.5259C34.7089 44.8362 34.5042 45.1664 34.3786 45.5166C34.2527 45.859 34.1732 46.1876 34.1401 46.5024C34.1108 46.8132 34.1113 47.0912 34.1417 47.3366C34.1759 47.578 34.211 47.7527 34.2471 47.8608L34.1319 47.9128L33.2701 46.3587C33.3702 46.0527 33.4715 45.774 33.574 45.5228C33.6761 45.2636 33.7926 45.0176 33.9233 44.7847C34.0578 44.5476 34.2082 44.3177 34.3746 44.095C34.5407 43.8644 34.7377 43.6246 34.9656 43.3756C35.1188 43.2082 35.2997 43.0475 35.5084 42.8934C35.717 42.7392 35.9462 42.6077 36.196 42.4987C36.4458 42.3898 36.7107 42.3135 36.9908 42.2698C37.2705 42.2182 37.5622 42.2152 37.8658 42.2605C38.169 42.298 38.4767 42.3922 38.7889 42.5429C39.1048 42.6895 39.4199 42.9067 39.7342 43.1944C40.0689 43.5008 40.359 43.8601 40.6043 44.2723C40.8456 44.6807 41.053 45.1181 41.2263 45.5844C41.3956 46.0469 41.5363 46.5284 41.6485 47.0287C41.7606 47.529 41.8529 48.0224 41.9253 48.5088C41.9977 48.9952 42.0557 49.4646 42.0991 49.9171C42.1385 50.3657 42.1781 50.7733 42.2177 51.1397L44.3756 48.7825C44.5139 48.6315 44.6464 48.4827 44.7731 48.3361C44.8994 48.1816 45.0125 48.0376 45.1124 47.9039C45.2082 47.7665 45.2849 47.6417 45.3426 47.5295C45.4041 47.4132 45.4388 47.3137 45.4469 47.2311L45.4694 47.2066L46.7735 48.4005L41.8524 53.7762L41.7299 53.6641Z" fill="white"/>
<path d="M49.0155 38.1215C49.2986 38.4762 49.6168 38.7816 49.97 39.0378C50.3232 39.294 50.6954 39.5031 51.0868 39.6651C51.479 39.8193 51.8846 39.9239 52.3037 39.9788C52.7272 40.0302 53.1468 40.028 53.5625 39.9723C53.9826 39.9131 54.3928 39.8016 54.7931 39.6378C55.19 39.4697 55.5657 39.2441 55.9204 38.961C56.275 38.6779 56.5782 38.3615 56.8301 38.0117C57.0828 37.6542 57.2824 37.2789 57.4289 36.8858C57.5797 36.4893 57.6747 36.0806 57.7141 35.6597C57.7534 35.2389 57.7413 34.8201 57.6778 34.4035C57.6108 33.9826 57.4915 33.5715 57.32 33.1703C57.1484 32.7691 56.9211 32.3912 56.638 32.0366C56.2133 31.5046 55.7151 31.0845 55.1433 30.7762C54.568 30.4636 53.9676 30.2703 53.3419 30.1962C52.7172 30.1143 52.0923 30.1564 51.4673 30.3226C50.8388 30.4844 50.2586 30.7776 49.7266 31.2023C49.1947 31.6269 48.7802 32.1278 48.4831 32.7048C48.1827 33.2775 48.001 33.8792 47.9381 34.51C47.8761 35.1331 47.9338 35.7597 48.1111 36.39C48.2894 37.0124 48.5908 37.5896 49.0155 38.1215ZM47.9828 38.9035C47.6306 38.4623 47.3468 37.9915 47.1312 37.4908C46.92 36.9868 46.7767 36.4746 46.7012 35.9542C46.6265 35.4261 46.6189 34.8976 46.6782 34.3687C46.7375 33.8399 46.8616 33.3301 47.0505 32.8394C47.2403 32.3409 47.4957 31.8715 47.8168 31.4311C48.1345 30.9863 48.5139 30.5878 48.955 30.2357C49.3961 29.8835 49.8687 29.6019 50.3728 29.3906C50.8734 29.1751 51.3878 29.03 51.9159 28.9554C52.4406 28.8764 52.9674 28.8666 53.4962 28.9259C54.0251 28.9852 54.5366 29.1115 55.0307 29.3047C55.5258 29.4902 55.9935 29.7435 56.4339 30.0646C56.8787 30.3822 57.2771 30.7616 57.6293 31.2027C57.9849 31.6482 58.2683 32.123 58.4795 32.627C58.6916 33.1233 58.8349 33.6355 58.9096 34.1637C58.9886 34.6883 58.9984 35.2151 58.9391 35.744C58.8797 36.2728 58.7552 36.7865 58.5654 37.285C58.3722 37.7791 58.115 38.2464 57.7939 38.6868C57.4763 39.1316 57.0969 39.53 56.6557 39.8822C56.2146 40.2343 55.742 40.516 55.2379 40.7272C54.7373 40.9428 54.2247 41.09 53.7 41.169C53.1762 41.2402 52.6498 41.2461 52.121 41.1868C51.5921 41.1275 51.0785 41.0029 50.58 40.8131C50.0859 40.6199 49.6181 40.3666 49.1768 40.0533C48.7364 39.7322 48.3384 39.3489 47.9828 38.9035Z" fill="white"/>
<path d="M67.2016 31.8588C67.2217 31.7264 67.2648 31.5394 67.331 31.2979C67.3945 31.0516 67.4669 30.7651 67.5483 30.4385C67.627 30.107 67.7064 29.7433 67.7865 29.3474C67.8666 28.9515 67.9344 28.5339 67.9899 28.0947C68.0453 27.6554 68.0802 27.2025 68.0945 26.7357C68.1109 26.2615 68.0927 25.7878 68.0397 25.3148C67.9868 24.8418 67.892 24.3736 67.7553 23.9101C67.6234 23.4439 67.4355 22.9968 67.1917 22.5689C66.9315 22.1121 66.6516 21.7493 66.3519 21.4806C66.0544 21.2043 65.7502 21.0113 65.4394 20.9018C65.1259 20.7875 64.8116 20.75 64.4965 20.7894C64.1862 20.8261 63.8844 20.928 63.5911 21.0951C63.2257 21.3033 62.9295 21.5548 62.7026 21.8497C62.4778 22.137 62.3014 22.4254 62.1733 22.7149C62.0501 23.0017 61.9654 23.2665 61.9191 23.5094C61.8776 23.7496 61.8574 23.9267 61.8587 24.0406L61.733 24.0549L61.3893 22.3113C61.5784 22.0507 61.7603 21.8166 61.9349 21.6088C62.1115 21.3935 62.2978 21.195 62.4936 21.0134C62.6943 20.829 62.908 20.6563 63.1347 20.4953C63.3635 20.3267 63.6245 20.1589 63.9178 19.9918C64.115 19.8795 64.3365 19.7819 64.5823 19.6992C64.8281 19.6165 65.0866 19.5615 65.3578 19.5344C65.6289 19.5073 65.9045 19.5159 66.1845 19.5602C66.4666 19.5969 66.7451 19.6834 67.0202 19.8197C67.2973 19.9484 67.5614 20.1323 67.8123 20.3715C68.068 20.6079 68.3013 20.9113 68.5123 21.2815C68.7369 21.6758 68.9028 22.1067 69.01 22.5743C69.1144 23.037 69.1776 23.5169 69.1997 24.0139C69.2189 24.506 69.2053 25.0074 69.1586 25.518C69.112 26.0287 69.0486 26.5266 68.9683 27.0117C68.8881 27.4969 68.7993 27.9615 68.7019 28.4055C68.6019 28.8446 68.5145 29.2447 68.4399 29.6056L71.2167 28.0236C71.3946 27.9222 71.5663 27.8212 71.7319 27.7205C71.8995 27.6123 72.0513 27.5098 72.1873 27.4132C72.3206 27.3118 72.4319 27.2166 72.5213 27.1274C72.6154 27.0356 72.679 26.9516 72.7121 26.8754L72.7409 26.859L73.6162 28.3952L67.2838 32.0031L67.2016 31.8588Z" fill="white"/>
<path d="M80.342 24.9597C80.38 24.8312 80.4484 24.6519 80.547 24.4217C80.6437 24.1864 80.7547 23.9126 80.8801 23.6002C81.0034 23.2827 81.1319 22.9333 81.2656 22.5521C81.3992 22.1709 81.5236 21.7665 81.6387 21.339C81.7539 20.9116 81.8505 20.4677 81.9287 20.0073C82.0099 19.5397 82.0567 19.0681 82.0691 18.5923C82.0815 18.1165 82.0517 17.6397 81.9799 17.1618C81.9131 16.6819 81.7883 16.2133 81.6055 15.756C81.4103 15.2679 81.1827 14.8702 80.9228 14.5629C80.6659 14.2484 80.391 14.0156 80.0982 13.8645C79.8033 13.7083 79.4971 13.6281 79.1795 13.624C78.8671 13.6178 78.5542 13.6773 78.2408 13.8027C77.8503 13.9588 77.5224 14.1674 77.2573 14.4284C76.9952 14.6821 76.7809 14.9436 76.6144 15.2129C76.4531 15.48 76.3328 15.7307 76.2536 15.965C76.1796 16.1973 76.1354 16.3699 76.121 16.4829L75.9946 16.4798L75.8931 14.7057C76.1161 14.4734 76.3284 14.2664 76.5298 14.0845C76.7343 13.8955 76.946 13.7244 77.1649 13.5713C77.3889 13.4162 77.6243 13.2744 77.8709 13.146C78.1207 13.0104 78.4022 12.8799 78.7157 12.7546C78.9263 12.6703 79.1591 12.6041 79.414 12.5558C79.6688 12.5075 79.9324 12.4885 80.2047 12.4989C80.477 12.5092 80.7488 12.5554 81.0201 12.6377C81.2945 12.7127 81.5585 12.8366 81.8123 13.0093C82.0692 13.1747 82.3056 13.3931 82.5213 13.6644C82.7422 13.9337 82.9318 14.2662 83.09 14.6618C83.2585 15.0831 83.3637 15.5327 83.4058 16.0106C83.4458 16.4833 83.4427 16.9673 83.3964 17.4626C83.348 17.9528 83.2658 18.4475 83.1496 18.9469C83.0334 19.4463 82.9023 19.9309 82.7564 20.4005C82.6104 20.8701 82.4588 21.3181 82.3015 21.7445C82.1422 22.1658 82.0008 22.5501 81.8775 22.8974L84.8448 21.7109C85.0349 21.6349 85.2189 21.5583 85.3967 21.4813C85.5776 21.3971 85.742 21.3164 85.89 21.2394C86.0359 21.1572 86.1592 21.078 86.2599 21.002C86.3658 20.9239 86.4403 20.8494 86.4835 20.7785L86.5143 20.7662L87.1707 22.4079L80.4036 25.1138L80.342 24.9597Z" fill="white"/>
<path d="M103.764 14.0292L103.58 12.8566L109.123 11.9857L109.307 13.1584L103.764 14.0292Z" fill="white"/>
<path d="M137.728 6.60416L137.652 6.6325C137.246 6.20721 136.748 5.85631 136.156 5.57982C135.569 5.30368 134.914 5.14237 134.19 5.09588C133.495 5.05118 132.85 5.12065 132.256 5.30429C131.662 5.48241 131.142 5.76508 130.695 6.1523C130.255 6.53987 129.899 7.02718 129.628 7.61423C129.358 8.20127 129.198 8.87861 129.148 9.64623C129.094 10.4912 129.154 11.288 129.328 12.0367C129.502 12.7798 129.79 13.4333 130.191 13.997C130.593 14.5607 131.11 15.0181 131.742 15.3692C132.38 15.7152 133.135 15.9162 134.007 15.9722C134.322 15.9925 134.639 15.9796 134.958 15.9335C135.277 15.8875 135.584 15.8102 135.88 15.7016C136.181 15.5879 136.464 15.448 136.73 15.2821C137.002 15.111 137.25 14.9135 137.475 14.6895L137.562 14.7534L136.791 16.4007C136.367 16.5342 135.901 16.6262 135.393 16.6768C134.89 16.7332 134.385 16.7451 133.877 16.7125C132.855 16.6468 131.928 16.4403 131.097 16.093C130.271 15.7405 129.569 15.274 128.991 14.6934C128.418 14.1131 127.985 13.4337 127.691 12.6552C127.403 11.8714 127.289 11.0156 127.348 10.0879C127.382 9.56324 127.482 9.05115 127.647 8.5516C127.817 8.0524 128.047 7.58196 128.336 7.14027C128.625 6.69858 128.973 6.29945 129.378 5.94288C129.784 5.58079 130.239 5.27454 130.743 5.02412C131.253 4.77405 131.805 4.59051 132.4 4.47349C133.002 4.3513 133.645 4.31221 134.329 4.35621C135.395 4.42469 136.373 4.65111 137.264 5.03548L137.728 6.60416Z" fill="white"/>
<path d="M143.105 17.0204C143.748 17.1335 144.344 17.2103 144.893 17.2507C145.442 17.2912 145.925 17.3114 146.34 17.3115C146.823 17.3177 147.266 17.303 147.671 17.2676L147.201 18.5502C147.137 18.5333 147.04 18.5106 146.91 18.4821C146.78 18.4537 146.634 18.4223 146.471 18.3881C146.314 18.3548 146.146 18.3197 145.967 18.2826C145.793 18.2519 145.627 18.2199 145.47 18.1867C145.312 18.1589 145.171 18.1312 145.046 18.1037C144.927 18.0826 144.839 18.0673 144.785 18.0577L141.253 17.4363L141.259 17.4036C141.312 17.2949 141.367 17.1585 141.424 16.9943C141.486 16.8311 141.55 16.6261 141.616 16.3792C141.682 16.1323 141.751 15.8382 141.822 15.4967C141.894 15.1499 141.971 14.7448 142.053 14.2815L142.989 8.95944C143.07 8.49618 143.136 8.09191 143.185 7.74664C143.236 7.39591 143.272 7.09327 143.295 6.83873C143.318 6.57874 143.328 6.36139 143.325 6.18668C143.328 6.01293 143.322 5.86595 143.31 5.74575L143.316 5.71305L145.278 6.05824L145.272 6.09094C145.219 6.19964 145.161 6.33559 145.099 6.4988C145.042 6.66296 144.98 6.8712 144.913 7.12352C144.853 7.37135 144.784 7.66823 144.706 8.01416C144.635 8.3556 144.558 8.75796 144.477 9.22122L143.105 17.0204Z" fill="white"/>
<path d="M158.812 21.7359L158.821 21.704C158.839 21.6806 158.859 21.6431 158.88 21.5915C158.901 21.5399 158.917 21.4929 158.93 21.4504C158.978 21.2857 159.007 21.0982 159.016 20.8877C159.033 20.6734 159.02 20.3989 158.98 20.0642L158.649 17.6154C158.354 17.5179 157.96 17.397 157.466 17.2527C156.972 17.1084 156.438 16.9525 155.865 16.785C155.445 16.6624 155.039 16.5437 154.645 16.4289C154.258 16.3157 153.906 16.2186 153.589 16.1377L152.058 17.9736C151.921 18.1469 151.774 18.3372 151.615 18.5446C151.456 18.7519 151.342 18.9751 151.272 19.2141C151.252 19.2832 151.24 19.3432 151.237 19.3941C151.235 19.4397 151.237 19.472 151.243 19.4911L151.234 19.5229L149.609 19.0482L149.618 19.0163C149.743 18.9433 149.915 18.8003 150.132 18.5872C150.352 18.3688 150.603 18.0905 150.886 17.7524L158.41 8.95855L159.047 9.14471L160.53 20.1451C160.564 20.403 160.603 20.6563 160.645 20.9052C160.695 21.1502 160.743 21.3717 160.789 21.5696C160.835 21.7675 160.878 21.9358 160.918 22.0743C160.958 22.2129 160.987 22.302 161.004 22.3417L160.995 22.3735L158.812 21.7359ZM154.949 15.7739C155.257 15.8639 155.573 15.9562 155.897 16.0509C156.223 16.1402 156.54 16.2298 156.848 16.3198C157.163 16.406 157.464 16.491 157.751 16.5748C158.039 16.6532 158.301 16.724 158.536 16.7869L157.775 11.0734L154.089 15.5226L154.949 15.7739Z" fill="white"/>
<path d="M172.541 16.5145L172.373 16.4428C172.382 16.3084 172.373 16.1478 172.344 15.9611C172.321 15.7766 172.262 15.5892 172.169 15.399C172.083 15.2058 171.954 15.0215 171.782 14.8459C171.615 14.6725 171.392 14.5261 171.112 14.4066C170.863 14.3002 170.625 14.2439 170.399 14.2377C170.173 14.2316 169.965 14.2689 169.774 14.3499C169.588 14.433 169.422 14.5546 169.275 14.7147C169.129 14.8748 169.006 15.0694 168.909 15.2984C168.752 15.6649 168.704 16.0595 168.765 16.4824C168.832 16.9022 168.952 17.3413 169.123 17.7995C169.294 18.2578 169.491 18.7269 169.714 19.2068C169.936 19.6868 170.128 20.1686 170.288 20.6522C170.449 21.1359 170.549 21.6146 170.587 22.0883C170.633 22.5591 170.561 23.0159 170.372 23.4587C170.231 23.7896 170.03 24.098 169.77 24.384C169.517 24.667 169.214 24.8899 168.862 25.0525C168.51 25.2151 168.11 25.3 167.661 25.3072C167.215 25.3094 166.733 25.1997 166.213 24.9782C165.923 24.8544 165.658 24.708 165.417 24.5391C165.179 24.3774 164.965 24.2107 164.773 24.0388C164.589 23.8639 164.427 23.6927 164.288 23.5251C164.154 23.3596 164.048 23.2148 163.968 23.0907L164.864 21.4783L165.055 21.5598C165.009 21.8229 165.003 22.091 165.036 22.3642C165.072 22.6322 165.146 22.8894 165.258 23.1355C165.377 23.3787 165.534 23.6023 165.73 23.8062C165.928 24.005 166.169 24.1652 166.454 24.2868C166.714 24.3975 166.962 24.4582 167.198 24.4687C167.441 24.4763 167.666 24.4429 167.872 24.3684C168.081 24.2889 168.264 24.1687 168.423 24.0079C168.587 23.8492 168.718 23.6554 168.816 23.4263C168.953 23.1057 169.02 22.7855 169.018 22.4658C169.018 22.141 168.974 21.8151 168.885 21.4883C168.801 21.1636 168.685 20.8346 168.539 20.5013C168.397 20.1702 168.248 19.8358 168.091 19.4982C167.937 19.1555 167.789 18.8098 167.649 18.4613C167.514 18.1149 167.409 17.763 167.333 17.4056C167.264 17.0453 167.238 16.6824 167.256 16.3169C167.276 15.9463 167.367 15.5701 167.53 15.1884C167.701 14.7863 167.932 14.4575 168.221 14.202C168.518 13.9435 168.843 13.7541 169.195 13.6336C169.552 13.5154 169.92 13.4646 170.298 13.4815C170.676 13.4983 171.038 13.5806 171.384 13.7283C171.638 13.8368 171.864 13.9571 172.06 14.089C172.256 14.221 172.427 14.3508 172.571 14.4784C172.72 14.6083 172.846 14.7283 172.949 14.8386C173.053 14.9489 173.138 15.0392 173.204 15.1096L172.541 16.5145Z" fill="white"/>
<path d="M184.028 22.5074L183.868 22.4177C183.892 22.2851 183.9 22.1244 183.892 21.9357C183.889 21.7497 183.852 21.557 183.78 21.3577C183.716 21.1563 183.608 20.9589 183.456 20.7655C183.31 20.5749 183.104 20.4048 182.839 20.2554C182.602 20.1222 182.372 20.0402 182.148 20.0092C181.924 19.9783 181.713 19.9925 181.514 20.052C181.32 20.1143 181.142 20.2169 180.979 20.3599C180.815 20.503 180.673 20.683 180.55 20.8999C180.355 21.247 180.264 21.634 180.277 22.0608C180.298 22.4856 180.369 22.9351 180.489 23.4094C180.609 23.8837 180.753 24.3716 180.922 24.873C181.09 25.3745 181.228 25.8744 181.334 26.3728C181.441 26.8712 181.487 27.3579 181.473 27.833C181.467 28.306 181.346 28.7521 181.11 29.1715C180.933 29.4849 180.699 29.7694 180.409 30.0251C180.127 30.2786 179.801 30.4669 179.433 30.5898C179.066 30.7128 178.658 30.7533 178.212 30.7113C177.768 30.6645 177.301 30.5025 176.809 30.2253C176.534 30.0704 176.286 29.8958 176.066 29.7014C175.847 29.5146 175.652 29.3253 175.48 29.1334C175.317 28.9395 175.175 28.7515 175.055 28.5696C174.94 28.3905 174.85 28.2348 174.785 28.1028L175.852 26.5984L176.032 26.7003C175.958 26.9568 175.922 27.2227 175.926 27.4979C175.932 27.7683 175.977 28.0319 176.061 28.2888C176.153 28.5437 176.285 28.7831 176.457 29.0073C176.632 29.2266 176.854 29.4123 177.124 29.5645C177.37 29.7031 177.61 29.7906 177.843 29.8269C178.084 29.8612 178.312 29.8527 178.525 29.8013C178.741 29.7452 178.936 29.6459 179.112 29.5034C179.292 29.3637 179.444 29.1854 179.566 28.9685C179.737 28.6648 179.839 28.3539 179.872 28.0359C179.908 27.7131 179.9 27.3844 179.847 27.0497C179.799 26.7178 179.721 26.3781 179.612 26.0308C179.507 25.6861 179.396 25.3374 179.277 24.9846C179.161 24.6269 179.053 24.2672 178.952 23.9054C178.855 23.5463 178.789 23.1849 178.753 22.8214C178.724 22.4557 178.738 22.0921 178.796 21.7308C178.856 21.3645 178.988 21.0007 179.192 20.6391C179.407 20.2583 179.672 19.9568 179.988 19.7346C180.311 19.5103 180.654 19.3576 181.018 19.2766C181.386 19.1982 181.757 19.1882 182.13 19.2464C182.504 19.3046 182.855 19.4261 183.183 19.6109C183.424 19.7467 183.635 19.891 183.815 20.0437C183.996 20.1964 184.151 20.3441 184.28 20.4868C184.414 20.6322 184.527 20.7654 184.617 20.8864C184.708 21.0074 184.782 21.1065 184.84 21.1837L184.028 22.5074Z" fill="white"/>
<path d="M184.993 34.9893C185.087 34.9134 185.195 34.8134 185.316 34.6891C185.438 34.5649 185.581 34.4051 185.746 34.2098C185.91 34.0145 186.098 33.7776 186.308 33.499C186.521 33.216 186.763 32.8822 187.034 32.4978L190.148 28.0814C190.419 27.6969 190.65 27.3591 190.842 27.0678C191.037 26.7719 191.199 26.5136 191.328 26.2928C191.459 26.0675 191.563 25.8768 191.64 25.7206C191.716 25.5645 191.774 25.4293 191.814 25.3152L191.833 25.2881L193.454 26.4313L193.435 26.4584C193.341 26.5343 193.231 26.6327 193.105 26.7538C192.984 26.878 192.839 27.0401 192.671 27.2399C192.511 27.4384 192.322 27.6776 192.104 27.9574C191.894 28.236 191.654 28.5675 191.382 28.9519L188.269 33.3683C187.998 33.7528 187.764 34.0929 187.569 34.3887C187.382 34.6832 187.222 34.9393 187.089 35.1569C186.96 35.3777 186.858 35.5662 186.782 35.7223C186.71 35.8817 186.654 36.0184 186.614 36.1325L186.595 36.1596L184.974 35.0164L184.993 34.9893Z" fill="white"/>
<path d="M206.688 39.7172L206.61 39.6926C206.551 39.1082 206.372 38.5252 206.074 37.9437C205.779 37.3658 205.361 36.8368 204.818 36.3566C204.295 35.8946 203.743 35.5541 203.161 35.335C202.583 35.1117 201.999 35.0162 201.409 35.0485C200.823 35.0845 200.243 35.2514 199.67 35.5493C199.096 35.8471 198.554 36.2842 198.045 36.8604C197.484 37.4946 197.043 38.1607 196.721 38.8587C196.403 39.5525 196.23 40.2453 196.201 40.937C196.173 41.6287 196.301 42.3069 196.585 42.9716C196.877 43.6359 197.35 44.2576 198.005 44.8369C198.241 45.0458 198.5 45.2299 198.78 45.3891C199.06 45.5484 199.35 45.6756 199.65 45.7709C199.958 45.8657 200.267 45.929 200.579 45.9609C200.899 45.9922 201.216 45.9885 201.531 45.9495L201.561 46.0535L199.942 46.8821C199.524 46.7273 199.1 46.5143 198.668 46.2428C198.236 45.9792 197.829 45.6788 197.448 45.3415C196.681 44.6633 196.076 43.932 195.631 43.1478C195.195 42.363 194.927 41.5641 194.826 40.7509C194.729 39.9414 194.803 39.139 195.049 38.3438C195.302 37.5481 195.736 36.8021 196.352 36.1057C196.7 35.7119 197.093 35.3683 197.529 35.0749C197.97 34.7852 198.44 34.5544 198.939 34.3827C199.439 34.2109 199.958 34.1085 200.497 34.0754C201.039 34.0382 201.586 34.0752 202.138 34.1864C202.694 34.3012 203.243 34.4949 203.785 34.7675C204.335 35.0395 204.867 35.4028 205.381 35.8574C206.181 36.565 206.815 37.3435 207.283 38.1929L206.688 39.7172Z" fill="white"/>
<path d="M223.63 60.7283L223.56 60.6866C223.635 60.104 223.593 59.4956 223.434 58.8615C223.279 58.232 222.992 57.6216 222.572 57.0306C222.168 56.4621 221.708 56.0051 221.191 55.6595C220.678 55.3107 220.131 55.0851 219.549 54.9825C218.971 54.8844 218.368 54.9153 217.742 55.075C217.115 55.2348 216.489 55.5374 215.862 55.9828C215.171 56.473 214.59 57.0215 214.118 57.6281C213.651 58.2315 213.325 58.8669 213.14 59.5341C212.956 60.2014 212.926 60.8909 213.052 61.6027C213.185 62.3159 213.505 63.0289 214.011 63.7417C214.194 63.9989 214.403 64.2369 214.64 64.4556C214.877 64.6743 215.13 64.8641 215.401 65.025C215.679 65.1873 215.966 65.3193 216.262 65.4211C216.566 65.5242 216.876 65.5926 217.192 65.6262L217.198 65.7343L215.432 66.1734C215.061 65.9279 214.696 65.624 214.337 65.2614C213.976 64.9067 213.649 64.5217 213.354 64.1066C212.761 63.2719 212.337 62.4223 212.083 61.5576C211.837 60.6943 211.756 59.8552 211.843 59.0404C211.933 58.2301 212.187 57.4656 212.607 56.7469C213.034 56.0295 213.626 55.4016 214.384 54.8633C214.813 54.5589 215.273 54.3134 215.765 54.1269C216.26 53.9449 216.771 53.827 217.296 53.7731C217.821 53.7192 218.35 53.7373 218.882 53.8276C219.419 53.9146 219.943 54.0749 220.455 54.3085C220.971 54.5467 221.461 54.86 221.927 55.2485C222.401 55.6384 222.837 56.113 223.234 56.6725C223.852 57.5433 224.293 58.4454 224.555 59.3789L223.63 60.7283Z" fill="white"/>
<path d="M230.732 69.4491C231.159 70.2688 231.417 71.095 231.508 71.9277C231.606 72.7627 231.543 73.5594 231.321 74.318C231.103 75.074 230.729 75.7707 230.2 76.4081C229.671 77.0454 228.997 77.5775 228.177 78.0043C227.711 78.2471 227.224 78.4321 226.716 78.5592C226.208 78.6863 225.698 78.7491 225.186 78.7476C224.676 78.7511 224.17 78.69 223.668 78.5646C223.171 78.4366 222.695 78.2415 222.24 77.9791C221.793 77.7192 221.378 77.3893 220.995 76.9897C220.607 76.5926 220.271 76.1216 219.988 75.5768C219.561 74.7571 219.296 73.931 219.193 73.0986C219.098 72.2685 219.159 71.4755 219.377 70.7194C219.595 69.9634 219.966 69.268 220.49 68.6332C221.019 67.9958 221.696 67.4625 222.521 67.0331C222.987 66.7904 223.474 66.6054 223.982 66.4783C224.49 66.3511 225.001 66.2846 225.516 66.2786C226.033 66.2776 226.539 66.3386 227.034 66.4616C227.536 66.5871 228.013 66.7785 228.465 67.0359C228.92 67.2983 229.338 67.6293 229.721 68.0289C230.111 68.4309 230.448 68.9043 230.732 69.4491ZM220.65 75.2318C220.934 75.7766 221.292 76.2237 221.723 76.5731C222.154 76.9224 222.641 77.162 223.183 77.2917C223.727 77.4263 224.314 77.4452 224.944 77.3482C225.578 77.2487 226.236 77.0213 226.919 76.6661C227.675 76.2725 228.328 75.82 228.879 75.3085C229.437 74.7994 229.863 74.2503 230.155 73.6614C230.452 73.0699 230.599 72.4475 230.596 71.7941C230.6 71.1431 230.425 70.4764 230.069 69.7942C229.786 69.2493 229.428 68.8022 228.997 68.4529C228.57 68.101 228.087 67.8564 227.548 67.7193C227.011 67.587 226.428 67.5693 225.798 67.6663C225.169 67.7632 224.513 67.9893 223.831 68.3445C223.08 68.7355 222.422 69.1869 221.859 69.6986C221.301 70.2077 220.873 70.758 220.576 71.3495C220.278 71.941 220.126 72.566 220.12 73.2245C220.118 73.8804 220.295 74.5495 220.65 75.2318Z" fill="white"/>
<path d="M225.561 85.9202C225.791 86.5311 226.029 87.0831 226.274 87.5761C226.52 88.0692 226.748 88.4945 226.96 88.8523C227.201 89.2702 227.439 89.6443 227.677 89.9748L226.333 90.2244C226.315 90.1603 226.285 90.0652 226.243 89.939C226.202 89.8128 226.154 89.671 226.101 89.5137C226.049 89.3616 225.994 89.1992 225.935 89.0264C225.872 88.8607 225.815 88.7018 225.764 88.5497C225.707 88.3996 225.659 88.264 225.619 88.143C225.576 88.0291 225.545 87.9462 225.525 87.8944L224.259 84.5395L224.29 84.5278C224.41 84.5178 224.556 84.4955 224.726 84.4608C224.898 84.4313 225.107 84.3819 225.353 84.3128C225.599 84.2436 225.887 84.1526 226.217 84.0399C226.553 83.9252 226.94 83.7848 227.38 83.6187L232.436 81.7106C232.876 81.5445 233.257 81.3947 233.58 81.2613C233.907 81.1258 234.186 81.0028 234.416 80.8922C234.652 80.7797 234.844 80.6776 234.993 80.586C235.143 80.4995 235.267 80.4202 235.364 80.3481L235.395 80.3364L236.099 82.2003L236.068 82.212C235.947 82.2219 235.801 82.2417 235.629 82.2712C235.459 82.3059 235.248 82.3588 234.997 82.4299C234.753 82.5043 234.462 82.5962 234.125 82.7057C233.795 82.8185 233.41 82.9579 232.97 83.124L225.561 85.9202Z" fill="white"/>
<path d="M228.604 95.3882C228.778 96.0177 228.964 96.5891 229.163 97.1025C229.362 97.6159 229.551 98.0604 229.729 98.4361C229.931 98.8742 230.134 99.2687 230.34 99.6195L228.98 99.7451C228.967 99.6796 228.946 99.5821 228.916 99.4526C228.886 99.3231 228.852 99.1776 228.813 99.0161C228.776 98.8599 228.735 98.6931 228.692 98.5156C228.645 98.3449 228.603 98.1814 228.565 98.0253C228.523 97.8706 228.487 97.7311 228.459 97.607C228.426 97.4896 228.403 97.4043 228.388 97.3509L227.434 93.8942L227.466 93.8853C227.587 93.8864 227.734 93.8775 227.906 93.8585C228.081 93.8449 228.293 93.8149 228.545 93.7685C228.796 93.7222 229.091 93.658 229.43 93.5759C229.774 93.4924 230.173 93.388 230.627 93.2629L235.836 91.8256C236.289 91.7005 236.683 91.5862 237.016 91.4828C237.354 91.3779 237.643 91.281 237.883 91.1919C238.128 91.1014 238.328 91.0173 238.485 90.9397C238.643 90.8674 238.773 90.7998 238.877 90.7369L238.909 90.728L239.439 92.6485L239.406 92.6573C239.286 92.6562 239.138 92.6625 238.964 92.6761C238.791 92.695 238.577 92.7284 238.32 92.7763C238.07 92.828 237.772 92.8929 237.426 92.9711C237.087 93.0532 236.691 93.1568 236.238 93.2819L228.604 95.3882Z" fill="white"/>
<path d="M241.554 101.626C241.66 102.31 241.769 102.987 241.879 103.659C241.99 104.336 242.092 104.956 242.186 105.518C242.284 106.08 242.373 106.559 242.452 106.955C242.53 107.352 242.594 107.619 242.644 107.757L241.49 107.525C241.512 107.337 241.522 107.12 241.523 106.873C241.524 106.66 241.514 106.401 241.495 106.096C241.481 105.796 241.444 105.452 241.384 105.063C241.363 104.932 241.333 104.775 241.293 104.59C241.26 104.411 241.224 104.237 241.187 104.069C241.145 103.874 241.103 103.676 241.061 103.476L236.583 104.174C236.676 104.736 236.772 105.242 236.87 105.692C236.968 106.141 237.055 106.522 237.132 106.835C237.223 107.202 237.312 107.524 237.4 107.802L236.171 107.733C236.162 107.348 236.148 106.955 236.13 106.555C236.116 106.21 236.091 105.835 236.056 105.432C236.027 105.028 235.984 104.642 235.927 104.276L230.784 105.078C230.885 105.723 231.004 106.312 231.144 106.845C231.283 107.377 231.419 107.841 231.553 108.234C231.703 108.692 231.86 109.108 232.025 109.48L230.659 109.449C230.654 109.382 230.644 109.283 230.629 109.151C230.614 109.019 230.597 108.871 230.577 108.706C230.557 108.546 230.537 108.376 230.514 108.195C230.487 108.02 230.463 107.852 230.444 107.693C230.419 107.534 230.4 107.392 230.386 107.265C230.367 107.145 230.353 107.057 230.345 107.003L229.792 103.46L229.825 103.455C229.945 103.469 230.092 103.477 230.266 103.478C230.44 103.485 230.655 103.479 230.91 103.462C231.165 103.445 231.466 103.414 231.812 103.372C232.163 103.328 232.572 103.27 233.036 103.198L238.376 102.365C238.841 102.293 239.244 102.224 239.587 102.16C239.935 102.094 240.233 102.031 240.482 101.97C240.735 101.908 240.944 101.847 241.109 101.788C241.274 101.734 241.411 101.682 241.521 101.631L241.554 101.626Z" fill="white"/>
<path d="M241.853 127.585L241.818 127.511C242.207 127.071 242.514 126.544 242.738 125.93C242.963 125.322 243.068 124.655 243.052 123.93C243.037 123.233 242.912 122.597 242.678 122.021C242.45 121.444 242.124 120.95 241.7 120.539C241.276 120.133 240.76 119.821 240.151 119.601C239.543 119.382 238.855 119.281 238.086 119.297C237.239 119.316 236.451 119.444 235.72 119.681C234.994 119.918 234.368 120.261 233.841 120.71C233.313 121.159 232.902 121.713 232.606 122.372C232.316 123.037 232.181 123.807 232.2 124.681C232.207 124.996 232.247 125.311 232.32 125.625C232.393 125.939 232.497 126.238 232.63 126.523C232.769 126.814 232.933 127.084 233.121 127.335C233.315 127.59 233.533 127.821 233.775 128.026L233.719 128.119L232.012 127.492C231.843 127.08 231.711 126.624 231.617 126.122C231.518 125.626 231.462 125.123 231.451 124.614C231.429 123.591 231.555 122.65 231.83 121.791C232.11 120.939 232.515 120.199 233.044 119.573C233.573 118.953 234.212 118.463 234.963 118.103C235.719 117.749 236.562 117.562 237.491 117.542C238.017 117.53 238.536 117.586 239.048 117.707C239.56 117.835 240.048 118.023 240.513 118.273C240.978 118.523 241.405 118.835 241.795 119.208C242.191 119.582 242.535 120.009 242.828 120.49C243.121 120.976 243.351 121.511 243.518 122.094C243.692 122.682 243.786 123.319 243.801 124.005C243.824 125.073 243.682 126.067 243.376 126.987L241.853 127.585Z" fill="white"/>
<path d="M242.196 136.217C242.259 135.567 242.286 134.978 242.277 134.449C242.273 133.92 242.257 133.462 242.228 133.076C242.188 132.627 242.136 132.225 242.07 131.868L243.385 132.238C243.373 132.304 243.358 132.402 243.34 132.534C243.321 132.666 243.302 132.811 243.28 132.97C243.259 133.135 243.237 133.305 243.214 133.481C243.196 133.663 243.177 133.833 243.156 133.992C243.14 134.152 243.123 134.292 243.106 134.413C243.094 134.539 243.085 134.63 243.079 134.685L242.618 139.403C242.613 139.458 242.604 139.546 242.593 139.667C242.586 139.794 242.575 139.938 242.559 140.097C242.549 140.258 242.535 140.426 242.518 140.602C242.506 140.784 242.495 140.956 242.484 141.116C242.474 141.282 242.465 141.431 242.457 141.564C242.45 141.696 242.446 141.796 242.445 141.863L241.083 141.972C241.217 141.629 241.346 141.241 241.472 140.809C241.575 140.435 241.68 139.989 241.786 139.471C241.898 138.954 241.985 138.371 242.049 137.721L234.159 136.95C233.691 136.904 233.28 136.869 232.927 136.846C232.578 136.828 232.276 136.816 232.021 136.807C231.766 136.805 231.551 136.809 231.378 136.82C231.204 136.836 231.058 136.855 230.939 136.877L230.906 136.874L231.099 134.899L231.132 134.902C231.244 134.947 231.384 134.991 231.552 135.035C231.72 135.079 231.93 135.125 232.181 135.172C232.432 135.218 232.731 135.264 233.077 135.309C233.428 135.355 233.838 135.4 234.306 135.446L242.196 136.217Z" fill="white"/>
<path d="M229.832 143.856C229.939 143.912 230.074 143.97 230.237 144.031C230.4 144.092 230.604 144.158 230.849 144.23C231.094 144.302 231.387 144.377 231.726 144.457C232.071 144.537 232.474 144.624 232.936 144.717L238.233 145.781C238.695 145.874 239.097 145.949 239.441 146.007C239.791 146.065 240.092 146.109 240.346 146.138C240.606 146.167 240.822 146.185 240.996 146.192C241.169 146.198 241.316 146.197 241.437 146.187L241.469 146.194L241.079 148.139L241.046 148.132C240.939 148.077 240.804 148.016 240.643 147.95C240.48 147.889 240.273 147.822 240.023 147.749C239.776 147.683 239.481 147.606 239.137 147.52C238.798 147.441 238.397 147.355 237.936 147.262L232.638 146.198C232.177 146.105 231.772 146.029 231.422 145.97C231.077 145.918 230.778 145.875 230.525 145.841C230.271 145.813 230.058 145.795 229.884 145.788C229.709 145.787 229.562 145.791 229.441 145.801L229.409 145.795L229.799 143.85L229.832 143.856Z" fill="white"/>
<path d="M237.432 162.313C237.143 163.191 236.733 163.953 236.2 164.599C235.671 165.253 235.057 165.765 234.359 166.135C233.666 166.507 232.906 166.727 232.081 166.794C231.255 166.86 230.403 166.749 229.525 166.461C229.026 166.297 228.553 166.077 228.107 165.803C227.662 165.528 227.26 165.207 226.903 164.839C226.545 164.477 226.235 164.072 225.974 163.626C225.719 163.18 225.526 162.703 225.396 162.195C225.269 161.693 225.215 161.166 225.234 160.613C225.247 160.058 225.35 159.489 225.542 158.905C225.83 158.027 226.236 157.261 226.76 156.606C227.287 155.958 227.898 155.447 228.591 155.075C229.284 154.703 230.041 154.483 230.861 154.414C231.687 154.348 232.541 154.459 233.425 154.75C233.924 154.914 234.397 155.133 234.842 155.408C235.288 155.682 235.693 156.001 236.057 156.366C236.419 156.735 236.728 157.14 236.986 157.58C237.247 158.026 237.443 158.502 237.575 159.005C237.705 159.514 237.76 160.045 237.742 160.598C237.727 161.158 237.623 161.729 237.432 162.313ZM226.251 159.138C226.06 159.722 225.989 160.29 226.041 160.843C226.092 161.396 226.261 161.911 226.546 162.389C226.83 162.873 227.227 163.306 227.736 163.689C228.25 164.073 228.873 164.386 229.604 164.626C230.413 164.892 231.194 165.043 231.944 165.08C232.699 165.124 233.389 165.045 234.015 164.843C234.645 164.642 235.193 164.312 235.659 163.854C236.127 163.402 236.482 162.811 236.722 162.08C236.914 161.496 236.984 160.928 236.932 160.375C236.886 159.824 236.724 159.308 236.445 158.826C236.165 158.35 235.77 157.92 235.261 157.537C234.752 157.154 234.132 156.843 233.401 156.603C232.597 156.339 231.815 156.184 231.055 156.138C230.301 156.094 229.608 156.172 228.977 156.373C228.346 156.573 227.793 156.901 227.317 157.357C226.847 157.814 226.491 158.407 226.251 159.138Z" fill="white"/>
<path d="M232.64 173.918L220.694 177.546L225.932 180.138C226.353 180.346 226.723 180.523 227.04 180.668C227.363 180.815 227.643 180.935 227.881 181.028C228.124 181.123 228.329 181.194 228.498 181.241C228.664 181.292 228.806 181.328 228.925 181.35L228.955 181.365L228.3 182.689L228.27 182.675C228.181 182.593 228.065 182.502 227.924 182.401C227.782 182.3 227.6 182.182 227.376 182.047C227.158 181.914 226.893 181.765 226.58 181.598C226.273 181.433 225.908 181.247 225.486 181.038L217.585 177.129L217.714 176.868L229.652 173.236L224.563 170.718C224.142 170.509 223.77 170.332 223.448 170.184C223.13 170.04 222.852 169.921 222.615 169.828C222.377 169.735 222.175 169.663 222.009 169.611C221.842 169.56 221.7 169.524 221.581 169.502L221.551 169.487L222.207 168.163L222.236 168.177C222.326 168.259 222.441 168.35 222.583 168.451C222.722 168.557 222.9 168.676 223.119 168.809C223.337 168.941 223.6 169.09 223.908 169.254C224.22 169.421 224.587 169.609 225.009 169.818L229.852 172.214C230.274 172.423 230.643 172.599 230.961 172.744C231.283 172.891 231.563 173.011 231.801 173.104C232.044 173.2 232.25 173.271 232.418 173.317C232.584 173.368 232.727 173.405 232.846 173.427L232.875 173.442L232.64 173.918Z" fill="white"/>
<path d="M208.978 190.363C209.005 190.495 209.03 190.685 209.052 190.934C209.078 191.187 209.11 191.481 209.147 191.816C209.188 192.154 209.24 192.522 209.303 192.922C209.365 193.321 209.447 193.736 209.548 194.167C209.649 194.598 209.773 195.035 209.922 195.477C210.072 195.928 210.254 196.366 210.468 196.791C210.682 197.216 210.933 197.622 211.223 198.009C211.509 198.4 211.84 198.754 212.218 199.07C212.62 199.408 213.009 199.651 213.383 199.799C213.758 199.954 214.111 200.029 214.44 200.024C214.774 200.022 215.082 199.948 215.363 199.802C215.642 199.659 215.889 199.459 216.106 199.2C216.376 198.878 216.566 198.539 216.677 198.184C216.787 197.836 216.853 197.504 216.872 197.188C216.888 196.877 216.875 196.599 216.834 196.355C216.79 196.115 216.747 195.942 216.706 195.836L216.819 195.779L217.747 197.294C217.661 197.604 217.572 197.887 217.48 198.143C217.389 198.406 217.284 198.657 217.163 198.895C217.039 199.138 216.899 199.374 216.742 199.604C216.587 199.841 216.4 200.09 216.183 200.348C216.037 200.522 215.864 200.691 215.662 200.854C215.46 201.017 215.237 201.158 214.992 201.278C214.747 201.397 214.486 201.485 214.208 201.541C213.931 201.605 213.64 201.62 213.334 201.588C213.03 201.564 212.718 201.483 212.4 201.346C212.078 201.214 211.754 201.01 211.427 200.737C211.079 200.445 210.774 200.099 210.511 199.698C210.252 199.3 210.026 198.872 209.832 198.414C209.643 197.959 209.482 197.484 209.348 196.989C209.214 196.494 209.1 196.005 209.007 195.522C208.913 195.04 208.835 194.573 208.772 194.123C208.713 193.677 208.656 193.271 208.6 192.907L206.547 195.356C206.416 195.512 206.29 195.667 206.169 195.819C206.05 195.979 205.943 196.127 205.849 196.265C205.76 196.407 205.688 196.535 205.635 196.649C205.579 196.768 205.549 196.869 205.544 196.952L205.523 196.977L204.168 195.841L208.851 190.257L208.978 190.363Z" fill="white"/>
<path d="M202.375 206.209C202.077 205.867 201.746 205.575 201.382 205.335C201.018 205.094 200.637 204.901 200.239 204.757C199.84 204.62 199.43 204.533 199.009 204.496C198.584 204.463 198.165 204.484 197.752 204.557C197.335 204.635 196.93 204.764 196.537 204.945C196.148 205.13 195.782 205.372 195.44 205.67C195.098 205.968 194.809 206.298 194.573 206.658C194.336 207.026 194.153 207.41 194.023 207.809C193.89 208.212 193.813 208.624 193.792 209.046C193.771 209.468 193.801 209.886 193.883 210.3C193.968 210.717 194.105 211.123 194.294 211.516C194.483 211.91 194.726 212.277 195.024 212.619C195.472 213.132 195.988 213.53 196.573 213.813C197.161 214.101 197.769 214.268 198.397 214.315C199.025 214.369 199.648 214.3 200.265 214.107C200.886 213.918 201.453 213.6 201.966 213.152C202.479 212.705 202.871 212.187 203.143 211.597C203.418 211.012 203.573 210.403 203.609 209.77C203.643 209.145 203.559 208.521 203.354 207.899C203.149 207.285 202.823 206.722 202.375 206.209ZM203.373 205.383C203.744 205.808 204.048 206.266 204.285 206.757C204.518 207.251 204.684 207.757 204.782 208.273C204.879 208.798 204.91 209.325 204.873 209.856C204.837 210.387 204.735 210.902 204.568 211.4C204.4 211.907 204.165 212.387 203.864 212.841C203.566 213.299 203.204 213.713 202.778 214.084C202.353 214.455 201.893 214.757 201.399 214.99C200.908 215.227 200.4 215.395 199.876 215.492C199.355 215.594 198.829 215.627 198.298 215.59C197.768 215.554 197.251 215.45 196.749 215.279C196.246 215.115 195.768 214.882 195.314 214.58C194.856 214.282 194.441 213.921 194.07 213.495C193.696 213.066 193.392 212.604 193.159 212.109C192.926 211.623 192.76 211.117 192.663 210.593C192.561 210.072 192.528 209.546 192.564 209.015C192.601 208.484 192.703 207.966 192.871 207.46C193.042 206.958 193.279 206.48 193.581 206.026C193.879 205.567 194.24 205.153 194.666 204.782C195.091 204.411 195.551 204.109 196.045 203.876C196.536 203.639 197.042 203.469 197.563 203.368C198.083 203.274 198.608 203.245 199.139 203.281C199.67 203.318 200.189 203.42 200.695 203.588C201.197 203.759 201.676 203.992 202.13 204.286C202.584 204.587 202.998 204.953 203.373 205.383Z" fill="white"/>
<path d="M184.479 213.256C184.464 213.389 184.429 213.578 184.374 213.822C184.321 214.071 184.261 214.36 184.194 214.69C184.13 215.025 184.066 215.392 184.003 215.791C183.941 216.19 183.891 216.61 183.855 217.051C183.818 217.492 183.803 217.946 183.809 218.413C183.813 218.888 183.852 219.36 183.926 219.83C183.999 220.301 184.114 220.764 184.271 221.221C184.423 221.681 184.63 222.12 184.892 222.537C185.172 222.982 185.468 223.332 185.779 223.588C186.088 223.851 186.4 224.03 186.715 224.126C187.034 224.227 187.349 224.251 187.662 224.197C187.971 224.147 188.268 224.032 188.554 223.853C188.91 223.629 189.195 223.365 189.408 223.06C189.621 222.763 189.784 222.468 189.9 222.173C190.01 221.881 190.083 221.613 190.119 221.368C190.15 221.126 190.163 220.948 190.156 220.835L190.281 220.815L190.7 222.542C190.523 222.81 190.351 223.052 190.186 223.267C190.019 223.49 189.841 223.697 189.654 223.887C189.461 224.08 189.255 224.261 189.036 224.432C188.814 224.61 188.561 224.789 188.275 224.969C188.083 225.09 187.866 225.197 187.624 225.29C187.382 225.384 187.126 225.45 186.856 225.489C186.587 225.528 186.311 225.531 186.029 225.499C185.746 225.475 185.464 225.4 185.183 225.276C184.901 225.159 184.629 224.987 184.368 224.759C184.102 224.534 183.856 224.241 183.629 223.88C183.387 223.496 183.203 223.073 183.076 222.611C182.951 222.153 182.867 221.676 182.823 221.181C182.783 220.69 182.775 220.188 182.799 219.676C182.823 219.164 182.865 218.664 182.924 218.175C182.983 217.687 183.052 217.219 183.13 216.771C183.211 216.328 183.281 215.925 183.339 215.561L180.634 217.262C180.461 217.371 180.294 217.48 180.133 217.587C179.97 217.703 179.823 217.812 179.691 217.914C179.562 218.021 179.455 218.121 179.37 218.214C179.28 218.31 179.22 218.397 179.19 218.474L179.162 218.492L178.221 216.995L184.39 213.116L184.479 213.256Z" fill="white"/>
<path d="M171.65 220.719C171.618 220.849 171.557 221.031 171.469 221.265C171.382 221.505 171.283 221.783 171.172 222.101C171.062 222.423 170.949 222.778 170.832 223.164C170.715 223.551 170.609 223.961 170.512 224.393C170.416 224.825 170.338 225.272 170.28 225.736C170.219 226.206 170.193 226.68 170.202 227.155C170.21 227.631 170.26 228.106 170.353 228.581C170.44 229.057 170.585 229.52 170.788 229.969C171.004 230.448 171.249 230.836 171.522 231.131C171.792 231.434 172.077 231.655 172.376 231.793C172.678 231.936 172.987 232.003 173.304 231.993C173.617 231.986 173.927 231.913 174.234 231.774C174.618 231.601 174.936 231.379 175.19 231.106C175.441 230.841 175.643 230.571 175.798 230.295C175.948 230.021 176.057 229.765 176.126 229.527C176.19 229.292 176.226 229.118 176.236 229.004L176.362 229.002L176.541 230.77C176.328 231.012 176.125 231.228 175.932 231.418C175.735 231.616 175.531 231.796 175.319 231.959C175.102 232.123 174.873 232.275 174.633 232.414C174.389 232.56 174.113 232.703 173.806 232.842C173.599 232.935 173.369 233.012 173.117 233.071C172.864 233.13 172.602 233.161 172.329 233.162C172.057 233.164 171.783 233.129 171.508 233.059C171.231 232.996 170.962 232.884 170.701 232.722C170.437 232.568 170.191 232.36 169.964 232.098C169.732 231.839 169.528 231.515 169.352 231.127C169.166 230.713 169.041 230.268 168.978 229.793C168.918 229.322 168.9 228.839 168.925 228.342C168.952 227.85 169.012 227.352 169.107 226.848C169.201 226.344 169.311 225.854 169.436 225.379C169.562 224.903 169.694 224.449 169.832 224.016C169.973 223.589 170.098 223.198 170.206 222.846L167.293 224.16C167.106 224.245 166.926 224.329 166.752 224.414C166.574 224.506 166.414 224.594 166.269 224.677C166.127 224.765 166.007 224.85 165.91 224.93C165.808 225.013 165.736 225.091 165.696 225.163L165.666 225.177L164.939 223.565L171.582 220.568L171.65 220.719Z" fill="white"/>
<path d="M148.726 232.658L148.961 233.822L143.46 234.933L143.225 233.769L148.726 232.658Z" fill="white"/>
</svg>
