<svg width="20" height="17" viewBox="0 0 20 17" fill="none" xmlns="http://www.w3.org/2000/svg">
<path d="M5.15625 0C2.31206 0 0 2.33888 0 5.15625C0 6.13937 0.4455 6.9905 0.859375 7.60581C1.10319 7.97022 1.38404 8.30844 1.69744 8.61506L9.13 16.0703L9.62431 16.5646L10.1186 16.0703L17.5519 8.61506C17.5519 8.61506 19.25 7.11906 19.25 5.15625C19.25 2.33888 16.9379 0 14.0938 0C11.7329 0 10.2128 1.42038 9.625 2.01988C9.03719 1.42038 7.51713 0 5.15625 0ZM5.15625 1.375C7.2105 1.375 9.10938 3.37288 9.10938 3.37288L9.625 3.95312L10.1406 3.37288C10.1406 3.37288 12.0395 1.375 14.0938 1.375C16.1858 1.375 17.875 3.091 17.875 5.15625C17.875 6.21706 16.5859 7.64844 16.5859 7.64844L9.625 14.6094L2.66406 7.64844C2.66406 7.64844 2.33131 7.32875 1.99788 6.83169C1.66513 6.336 1.375 5.68837 1.375 5.15625C1.375 3.091 3.06419 1.375 5.15625 1.375Z" fill="#8C907E"/>
</svg>
