<svg width="22" height="11" viewBox="0 0 22 11" fill="none" xmlns="http://www.w3.org/2000/svg">
<path d="M10.549 0C4.818 0 0.408375 5.049 0.408375 5.049L0 5.5L0.408375 5.951C0.408375 5.951 4.42887 10.5352 9.77556 10.9574C10.0306 10.989 10.2857 11 10.549 11C10.8123 11 11.0674 10.989 11.3224 10.9567C16.6691 10.5353 20.6896 5.95169 20.6896 5.95169L21.098 5.5L20.6896 5.049C20.6896 5.049 16.28 0 10.549 0ZM10.549 1.375C12.0636 1.375 13.4599 1.78888 14.674 2.34163C15.126 3.08636 15.3639 3.94132 15.3615 4.8125C15.3644 5.9976 14.9296 7.14204 14.1406 8.02627C13.3515 8.91049 12.2637 9.47222 11.0859 9.60369C11.0722 9.60644 11.0564 9.60094 11.0433 9.60369C10.879 9.61125 10.7154 9.625 10.549 9.625C10.3661 9.625 10.1894 9.614 10.0121 9.60369C8.83427 9.47222 7.7465 8.91049 6.95744 8.02627C6.16837 7.14204 5.73359 5.9976 5.7365 4.8125C5.7365 3.91531 5.9785 3.08 6.40269 2.36294H6.38137C7.60444 1.79919 9.01794 1.375 10.549 1.375ZM10.549 2.75C10.0018 2.75018 9.4771 2.96773 9.09031 3.35478C8.70351 3.74183 8.48632 4.26668 8.4865 4.81387C8.48668 5.36107 8.70423 5.88577 9.09128 6.27257C9.47833 6.65936 10.0032 6.87656 10.5504 6.87638C10.8213 6.87629 11.0896 6.82283 11.3399 6.71906C11.5902 6.61529 11.8175 6.46324 12.0091 6.2716C12.2006 6.07995 12.3525 5.85245 12.4561 5.6021C12.5597 5.35175 12.613 5.08344 12.6129 4.8125C12.6128 4.54156 12.5593 4.27329 12.4556 4.02301C12.3518 3.77272 12.1997 3.54533 12.0081 3.35381C11.8164 3.16229 11.589 3.01039 11.3386 2.90679C11.0882 2.80319 10.8199 2.74991 10.549 2.75ZM4.53337 3.39487C4.4216 3.85921 4.36392 4.33491 4.3615 4.8125C4.3615 6.01837 4.70525 7.14656 5.30681 8.09944C4.08636 7.38448 2.96645 6.51033 1.97656 5.5C2.75582 4.71383 3.61243 4.00832 4.53337 3.39419V3.39487ZM16.5646 3.39487C17.4855 4.00879 18.3421 4.71407 19.1214 5.5C18.1315 6.51033 17.0116 7.38448 15.7912 8.09944C16.4113 7.11547 16.7391 5.97557 16.7365 4.8125C16.7365 4.32094 16.6719 3.85138 16.5646 3.39419V3.39487Z" fill="#111111"/>
</svg>
